<svg width="80" height="80" viewBox="0 0 80 80" fill="none" xmlns="http://www.w3.org/2000/svg">
<path d="M0 80H80V0H0V80ZM52.8516 27.0469C52.4141 27.5547 51.9063 28.0703 51.3984 28.5C50.3438 29.4063 49.5 30.5 48.4531 31.3984C47.5391 32.3125 46.6094 33.2422 45.7031 34.1484C45.3516 34.5547 44.9844 34.9844 44.8516 35.5C44.5703 35.5078 44.3047 35.4609 44.0469 35.3516C44.6797 34.5391 45.3594 33.7891 46.1094 33.0625C46.8672 32.3359 47.5391 31.6172 48.2656 30.8594C48.9844 30.1016 49.7188 29.4219 50.4375 28.6406C51.1563 27.8516 51.8359 27.2422 52.5469 26.3984C53.2578 25.5469 53.8359 25.0313 54.5859 24.0859C55.3359 23.1406 57.2031 24.2891 56.8516 25.4531C56.4922 26.6094 55.4609 26.8672 54.6953 27.6484C53.9297 28.4219 53.1016 28.9141 52.2969 29.5938C51.4922 30.2813 50.7188 30.9297 49.9141 31.6094C49.1016 32.2969 48.4219 32.9297 47.6406 33.6875C46.8594 34.4453 46.1172 35.3516 46 36.4531C45.4141 35.8594 45.9219 34.9688 46.3359 34.4375C46.7578 33.9063 47.2266 33.4531 47.7109 32.9609C48.1953 32.4766 48.6641 32.0313 49.1641 31.5625C49.6563 31.0938 50.2031 30.6641 50.7109 30.2109C51.2188 29.7656 51.7578 29.3516 52.2813 28.9375C52.8047 28.5156 53.3359 28.0625 53.8594 27.6641C54.3906 27.2578 54.8984 26.7031 55.4141 26.3125C55.9297 25.9219 56.5938 24.9531 55.8438 24.5078C55.1016 24.0547 54.6875 25.1094 54.2344 25.5391C53.7891 25.9688 53.2891 26.5938 52.8516 27.0469ZM29.75 38.9531C29.7188 38.7188 29.7109 38.4766 29.75 38.25C29.8203 37.1719 30.6172 36.3203 31.3594 35.5625C32.1016 34.8047 33.1875 34.3672 34.1016 33.9531C35.0234 33.5391 36.5859 33.5234 37.0156 32.5156C37.4453 31.5078 37.8125 30.5469 38.5156 29.7109C39.2109 28.8828 39.8516 28.2188 40.6875 27.5313C41.5156 26.8516 42.3516 26.3125 43.3047 25.8047C44.2578 25.2969 45.3672 24.8047 46.4531 24.6016C46.1797 24.8516 45.7734 24.9219 45.4453 25.1016C45.125 25.2813 44.7656 25.4531 44.4453 25.6484C44.1328 25.8359 43.8203 26.0078 43.5156 26.2188C43.2109 26.4219 42.8984 26.6406 42.6094 26.8594C42.3203 27.0781 42.0547 27.2891 41.7891 27.5391C41.5234 27.7891 41.2344 28.0156 40.9844 28.2891C40.7422 28.5625 40.4766 28.7578 40.2344 29.0391C40 29.3125 39.7813 29.6172 39.5625 29.9141C39.3359 30.2031 39.1172 30.4609 38.9375 30.7891C38.7578 31.1172 38.5469 31.4453 38.4063 31.8047C38.2578 32.1563 38.0938 32.4844 37.9531 32.8516C37.8125 33.2188 37.5859 33.5313 37.1875 33.6406C36.7891 33.7422 36.4453 33.9063 36.0469 34C35.6563 34.0938 35.25 34.2578 34.8672 34.3672C34.4844 34.4766 34.1484 34.6484 33.7891 34.7891C33.4297 34.9297 33.0703 35.0938 32.7422 35.2969C32.4219 35.4922 32.1484 35.6641 31.8594 35.9141C31.5781 36.1641 31.3594 36.4297 31.1094 36.7109C30.8672 36.9922 30.7344 37.3125 30.5313 37.6328C30.3359 37.9531 30.2969 38.5156 30.2031 38.8516C30.1094 39.1875 30.6797 39.8516 30.2969 39.9453C29.9219 40.0469 29.7109 39.1875 29.75 38.9531ZM47.25 40.8984C47.2188 40.6719 47.2578 40.4297 47.25 40.2031C47.2266 39.1172 46.4453 38.1875 45.5625 37.5391C44.6797 36.8906 43.6406 36.5156 42.5703 36.1797C41.4922 35.8516 40.1328 35.4531 38.9531 35.4531C38.7344 35.4531 38.5156 35.4531 38.2969 35.4531C36.0625 35.4531 33.8672 36.9375 32.75 38.8516C31.8594 38.6172 31.5078 36.7578 32.6484 36.7031C32.5781 37.3359 32.2813 38.0469 32.6016 38.6484C33.6016 36.6094 35.7188 35.0391 38.0469 35.1016C38.2734 35.0781 38.5313 35.0781 38.75 35.1016C39.4688 35.1016 40.1641 35.1953 40.8516 35.3516C39.4609 33.6719 40 31.0547 41.1641 29.4688C42.3281 27.875 43.6016 26.5625 45.2969 25.6484C44.7891 26.2656 44.1563 26.7031 43.5859 27.3359C43.0156 27.9766 42.4844 28.4609 41.9844 29.1875C41.4844 29.9141 41.1016 30.625 40.8984 31.5547C40.6953 32.4766 40.8125 33.6172 41.1953 34.5078C41.5781 35.3906 42.4063 35.6953 43.25 35.8984C44.1016 36.0938 44.9141 36.5547 45.6406 36.9609C46.3594 37.3672 47 37.9688 47.3906 38.6641C47.7813 39.3594 48.2344 40.8594 47.25 41.1484C47.25 41.0703 47.25 40.9844 47.25 40.8984ZM53.4531 37.8516C53.4531 37.5313 53.4688 37.2109 53.4531 36.8984C53.3438 34.875 51.6406 33.2734 50.1484 32.0469C50.6797 31.125 51.5781 32.3438 52.1484 32.7031C52.3828 32.8984 52.6172 33.1172 52.7969 33.3516C53.875 34.7109 54.5859 36.4453 54.3516 38.2031C54.1172 39.9531 53.375 41.2813 52.1094 42.5156C50.8516 43.7422 49.75 44.3438 48.1484 45.0469C46.5469 45.7422 44.7031 46.1172 42.8984 46.3516C41.1016 46.5859 38.5938 46.5938 36.8203 46.3359C35.0391 46.0781 33.2266 45.6484 31.6953 44.9063C30.1641 44.1563 28.9766 43.5 27.8125 42.2891C26.6484 41.0703 25.6484 39.6016 25.6484 37.8984C25.625 37.6797 25.625 37.4219 25.6484 37.2031C25.6875 35.3984 26.8984 33.8359 28.1641 32.5625C29.4297 31.2891 30.9297 30.5547 32.6016 29.8516C34.2813 29.1484 36.5547 28.6172 38.4531 28.5469C38.4922 28.8438 38.3438 29.0781 38.2969 29.3516C36.2422 29.3594 33.9766 30.0234 32.1641 30.8125C30.3594 31.6094 29.125 32.6563 27.8906 34.1875C26.6484 35.7188 26.125 38.1719 27.2656 39.8828C28.3984 41.6016 29.6797 42.4141 31.5313 43.2656C33.3828 44.1172 35.5938 44.4766 37.7031 44.75C39.8047 45.0234 42.6797 44.8203 44.7031 44.4063C46.7266 43.9844 48.6563 43.5 50.3359 42.3828C52.0156 41.2734 53.25 39.8281 53.4531 37.8516ZM48.4531 30.1484C48.2578 30.8984 47.6641 30.6094 47.1406 30.3594C46.6094 30.1172 46 29.9922 45.4375 29.8125C44.875 29.625 44.2031 29.5781 43.6484 29.3516C43.7109 28.4609 44.4922 28.8828 45.0625 28.9922C45.6328 29.1016 46.25 29.2969 46.8047 29.4922C47.3594 29.6953 47.9063 29.9141 48.4531 30.1484ZM49.0469 40.2969C49.1875 38.8047 48.3906 37.3438 47.1016 36.6016C47.4141 36.5 47.7422 36.75 48.0156 36.9375C48.2891 37.125 48.5313 37.3125 48.7656 37.5859C48.9922 37.8672 49.1172 38.1094 49.2969 38.4531C49.4766 38.7969 49.5313 39.1172 49.6172 39.5313C49.7031 39.9453 49.6406 40.4297 49.0469 40.2969ZM37.4531 37.1484C37.2266 37.3906 36.8125 37.4766 36.4922 37.6406C36.1641 37.7969 35.875 37.9453 35.5859 38.1875C35.2969 38.4375 35.0391 38.5313 34.7891 38.8906C34.5391 39.25 34.4063 39.2656 34.2344 39.7813C34.0625 40.2969 33.8984 39.9141 34.0859 39.4922C34.2734 39.0625 34.3672 38.8516 34.6406 38.5391C34.9063 38.2266 35.0469 38.0313 35.3516 37.8047C35.6641 37.5781 35.9063 37.3984 36.2578 37.2578C36.6172 37.1172 37.0859 37 37.4531 37.1484ZM50.5 38.1484C50.4609 38.0625 50.3984 37.9453 50.3516 37.8516C50.2422 37.6406 50.0313 37.4844 50 37.25C50.5 37.0703 50.6797 37.4063 50.8984 37.8047C51.1172 38.1953 50.7031 38.8359 50.5 38.1484ZM35.4531 40.7969C35.4219 41.0156 35 41.1797 34.8984 41.3516C34.9688 41.1094 35.2031 40.9063 35.3984 40.75C36.0547 40.0391 36.2422 38.9531 37.1641 38.4141C38.0859 37.8672 39.1328 37.2031 40.25 37.7031C39.2578 37.8047 38.2891 38.3203 37.4609 38.8594C36.6328 39.4063 36.2266 40.2969 35.4531 40.7969ZM44.6484 40.1484C44.2422 39.9453 44.1172 39.3594 43.7109 39.0391C43.3125 38.7188 42.9219 38.3828 42.3984 38.2969C42.5313 37.875 43.1563 38.1875 43.4609 38.3359C43.7734 38.4844 44.0313 38.7813 44.2109 39.0859C44.3984 39.3906 44.6406 39.7734 44.6484 40.1484ZM42.6016 40.5469C41.7656 40.0313 40.9375 39.3984 40.0469 39C41.0391 38.6563 42.6328 39.4141 42.6016 40.5469ZM44.8516 39.2031C45.375 39.2344 45.6172 39.3438 45.9141 39.8359C46.2109 40.3203 45.8438 40.8047 45.5859 40.2109C45.3359 39.625 44.9766 39.7734 44.8516 39.2031ZM37.75 40.5469C37.1797 40.3594 37.5078 39.9766 37.9063 39.7578C38.2969 39.5313 38.7266 39.4141 39.2031 39.5C39.6797 39.5859 39.9063 39.7344 40.3125 40.0391C40.7188 40.3438 40.75 40.5156 41.1484 40.9063C41.5469 41.2969 41.2578 41.625 40.8359 41.2656C40.4141 40.8984 40.3828 40.7344 39.9922 40.4531C39.6094 40.1719 39.3047 39.9922 38.8516 39.9531C38.3906 39.9063 37.9766 40.1797 37.75 40.5469ZM31.4531 40.6016C32.0234 40.7344 32.0391 41.7031 31.3516 41.6484C30.6641 41.6016 30.8125 40.4531 31.4531 40.6016ZM38.5469 42.25C38.6953 41.9609 38.7344 41.7422 39.0156 41.5156C39.2969 41.2813 39.7109 41.6328 39.3359 41.8359C38.9609 42.0469 38.9453 42.1563 38.5469 42.25ZM43.7969 41.5C44.2344 41.5469 44.8984 42.3594 44.3984 42.4531C43.8984 42.5469 43.375 41.4531 43.7969 41.5ZM36.5469 41.7031C36.9688 41.8125 36.9531 42.625 36.3984 42.4531C35.8359 42.2813 36.1094 41.5781 36.5469 41.7031ZM46.7031 51.2031C44.7891 52.5313 42.3672 52.9922 40 53C37.6328 53.0078 35.2266 52.4297 33.2969 51.1484C37.4219 53 42.5625 53.0156 46.7031 51.2031Z" stroke="#0E0D10" stroke-width="0.0075"/>
<path d="M45.7031 34.1483C46.1016 33.6796 46.6016 33.2655 47 32.7968C47.2734 32.4843 47.5859 32.1718 47.8984 31.8983C48.0859 31.7421 48.2656 31.5546 48.4531 31.3983C49.5 30.4999 50.3438 29.4061 51.3984 28.4999C51.8828 28.0233 52.375 27.5233 52.8516 27.0468C53.2891 26.5936 53.7891 25.9686 54.2344 25.539C54.6875 25.1093 55.1016 24.0546 55.8438 24.5077C56.5938 24.953 55.9297 25.9218 55.4141 26.3124C54.8984 26.703 54.3906 27.2577 53.8594 27.664C53.3359 28.0624 52.8047 28.5155 52.2813 28.9374C51.7578 29.3515 51.2188 29.7655 50.7109 30.2108C50.2031 30.664 49.6563 31.0936 49.1641 31.5624C48.6641 32.0311 48.1953 32.4765 47.7109 32.9608C47.2266 33.453 46.7578 33.9061 46.3359 34.4374C45.9219 34.9686 45.4141 35.8593 46 36.453C46.1172 35.3515 46.8594 34.4452 47.6406 33.6874C48.4219 32.9296 49.1016 32.2968 49.9141 31.6093C50.7188 30.9296 51.4922 30.2811 52.2969 29.5936C53.1016 28.914 53.9297 28.4218 54.6953 27.6483C55.4609 26.8671 56.4922 26.6093 56.8516 25.453C57.2031 24.289 55.3359 23.1405 54.5859 24.0858C53.8359 25.0311 53.2578 25.5468 52.5469 26.3983C51.8359 27.2421 51.1563 27.8515 50.4375 28.6405C49.7188 29.4218 48.9844 30.1015 48.2656 30.8593C47.5391 31.6171 46.8672 32.3358 46.1094 33.0624C45.3594 33.789 44.6797 34.539 44.0469 35.3515C44.3047 35.4608 44.5703 35.5077 44.8516 35.4999C44.9844 34.9843 45.3516 34.5546 45.7031 34.1483Z" stroke="#F5F5F5" stroke-width="0.0075"/>
<path d="M29.75 38.25C29.7344 38.4766 29.7422 38.7188 29.75 38.9531C29.7109 39.1875 29.9219 40.0469 30.2969 39.9453C30.6797 39.8516 30.1094 39.1875 30.2031 38.8516C30.2969 38.5156 30.3359 37.9531 30.5312 37.6328C30.7344 37.3125 30.8672 36.9922 31.1094 36.7109C31.3594 36.4297 31.5781 36.1641 31.8594 35.9141C32.1484 35.6641 32.4219 35.4922 32.7422 35.2969C33.0703 35.0938 33.4297 34.9297 33.7891 34.7891C34.1484 34.6484 34.4844 34.4766 34.8672 34.3672C35.25 34.2578 35.6562 34.0938 36.0469 34C36.4453 33.9063 36.7891 33.7422 37.1875 33.6406C37.5859 33.5313 37.8125 33.2188 37.9531 32.8516C38.0937 32.4844 38.2578 32.1563 38.4062 31.8047C38.5469 31.4453 38.7578 31.1172 38.9375 30.7891C39.1172 30.4609 39.3359 30.2031 39.5625 29.9141C39.7812 29.6172 40 29.3125 40.2344 29.0391C40.4766 28.7578 40.7422 28.5625 40.9844 28.2891C41.2344 28.0156 41.5234 27.7891 41.7891 27.5391C42.0547 27.2891 42.3203 27.0781 42.6094 26.8594C42.8984 26.6406 43.2109 26.4219 43.5156 26.2188C43.8203 26.0078 44.1328 25.8359 44.4453 25.6484C44.7656 25.4531 45.125 25.2813 45.4453 25.1016C45.7734 24.9219 46.1797 24.8516 46.4531 24.6016C45.3672 24.8047 44.2578 25.2969 43.3047 25.8047C42.3516 26.3125 41.5156 26.8516 40.6875 27.5313C39.8516 28.2188 39.2109 28.8828 38.5156 29.7109C37.8125 30.5469 37.4453 31.5078 37.0156 32.5156C36.5859 33.5234 35.0234 33.5391 34.1016 33.9531C33.1875 34.3672 32.1016 34.8047 31.3594 35.5625C30.6172 36.3203 29.8203 37.1719 29.75 38.25Z" stroke="#F7F7F7" stroke-width="0.0075"/>
<path d="M38.75 35.1016C38.5156 35.1016 38.2812 35.1016 38.0469 35.1016C35.7187 35.0391 33.6015 36.6094 32.6015 38.6484C32.2812 38.0469 32.5781 37.3359 32.6484 36.7031C31.5078 36.7578 31.8594 38.6172 32.75 38.8516C33.8672 36.9375 36.0625 35.4531 38.2969 35.4531C38.5078 35.4297 38.75 35.4297 38.9531 35.4531C40.1328 35.4531 41.4922 35.8516 42.5703 36.1797C43.6406 36.5156 44.6797 36.8906 45.5625 37.5391C46.4453 38.1875 47.2265 39.1172 47.25 40.2031C47.2734 40.4062 47.2422 40.7031 47.25 40.8984C47.25 40.9844 47.25 41.0703 47.25 41.1484C48.2344 40.8594 47.7812 39.3594 47.3906 38.6641C47 37.9687 46.3594 37.3672 45.6406 36.9609C44.914 36.5547 44.1015 36.0937 43.25 35.8984C42.4062 35.6953 41.5781 35.3906 41.1953 34.5078C40.8125 33.6172 40.6953 32.4766 40.8984 31.5547C41.1015 30.625 41.4844 29.9141 41.9844 29.1875C42.4844 28.4609 43.0156 27.9766 43.5859 27.3359C44.1562 26.7031 44.789 26.2656 45.2969 25.6484C43.6015 26.5625 42.3281 27.875 41.164 29.4687C40 31.0547 39.4609 33.6719 40.8515 35.3516C40.164 35.1953 39.4687 35.1016 38.75 35.1016Z" stroke="#F3F3F3" stroke-width="0.0075"/>
<path d="M51.3984 28.5C51.9063 28.0703 52.4141 27.5547 52.8516 27.0469C52.375 27.5234 51.8828 28.0234 51.3984 28.5Z" stroke="#3B393E" stroke-width="0.0075"/>
<path d="M25.6484 37.2031C25.6484 37.4297 25.6484 37.6641 25.6484 37.8984C25.6484 39.6016 26.6484 41.0703 27.8125 42.2891C28.9766 43.5 30.1641 44.1562 31.6953 44.9062C33.2266 45.6484 35.0391 46.0781 36.8203 46.3359C38.5937 46.5937 41.1016 46.5859 42.8984 46.3516C44.7031 46.1172 46.5469 45.7422 48.1484 45.0469C49.75 44.3437 50.8516 43.7422 52.1094 42.5156C53.375 41.2812 54.1172 39.9531 54.3516 38.2031C54.5859 36.4453 53.875 34.7109 52.7969 33.3516C52.6016 33.1328 52.3594 32.9062 52.1484 32.7031C51.5781 32.3437 50.6797 31.125 50.1484 32.0469C51.6406 33.2734 53.3437 34.875 53.4531 36.8984C53.5 37.2031 53.4766 37.5547 53.4531 37.8516C53.25 39.8281 52.0156 41.2734 50.3359 42.3828C48.6562 43.5 46.7266 43.9844 44.7031 44.4062C42.6797 44.8203 39.8047 45.0234 37.7031 44.75C35.5937 44.4766 33.3828 44.1172 31.5312 43.2656C29.6797 42.4141 28.3984 41.6016 27.2656 39.8828C26.125 38.1719 26.6484 35.7187 27.8906 34.1875C29.125 32.6562 30.3594 31.6094 32.1641 30.8125C33.9766 30.0234 36.2422 29.3594 38.2969 29.3516C38.3437 29.0781 38.4922 28.8437 38.4531 28.5469C36.5547 28.6172 34.2812 29.1484 32.6016 29.8516C30.9297 30.5547 29.4297 31.2891 28.1641 32.5625C26.8984 33.8359 25.6875 35.3984 25.6484 37.2031Z" stroke="#FAFAFA" stroke-width="0.0075"/>
<path d="M48.4531 30.1486C47.9063 29.9142 47.3594 29.6954 46.8047 29.4923C46.25 29.297 45.6328 29.1017 45.0625 28.9923C44.4922 28.8829 43.7109 28.4611 43.6484 29.3517C44.2031 29.5782 44.875 29.6251 45.4375 29.8126C46 29.9923 46.6094 30.1173 47.1406 30.3595C47.6641 30.6095 48.2578 30.8986 48.4531 30.1486Z" stroke="#F6F6F7" stroke-width="0.0075"/>
<path d="M47.8984 31.8984C47.6016 32.1953 47.2969 32.5078 47 32.7969C46.6016 33.2656 46.1016 33.6797 45.7031 34.1484C46.6094 33.2422 47.5391 32.3125 48.4531 31.3984C48.2656 31.5547 48.0859 31.7422 47.8984 31.8984Z" stroke="#4D3430" stroke-width="0.0075"/>
<path d="M47 32.7969C47.2969 32.5078 47.6016 32.1953 47.8984 31.8984C47.5859 32.1719 47.2734 32.4844 47 32.7969Z" stroke="#A2837A" stroke-width="0.0075"/>
<path d="M52.7969 33.3516C52.6172 33.1172 52.3828 32.8984 52.1484 32.7031C52.3594 32.9063 52.6016 33.1328 52.7969 33.3516Z" stroke="#827D83" stroke-width="0.0075"/>
<path d="M38.0469 35.1016C38.2813 35.1016 38.5156 35.1016 38.75 35.1016C38.5313 35.0781 38.2734 35.0781 38.0469 35.1016Z" stroke="#6D6B69" stroke-width="0.0075"/>
<path d="M38.2969 35.4531C38.5156 35.4531 38.7344 35.4531 38.9531 35.4531C38.75 35.4297 38.5078 35.4297 38.2969 35.4531Z" stroke="#949395" stroke-width="0.0075"/>
<path d="M49.0469 40.2969C49.6406 40.4297 49.7031 39.9453 49.6172 39.5313C49.5313 39.1172 49.4766 38.7969 49.2969 38.4531C49.1172 38.1094 48.9922 37.8672 48.7656 37.5859C48.5313 37.3125 48.2891 37.125 48.0156 36.9375C47.7422 36.75 47.4141 36.5 47.1016 36.6016C48.3906 37.3438 49.1875 38.8047 49.0469 40.2969Z" stroke="#F0F0F0" stroke-width="0.0075"/>
<path d="M53.4531 37.8516C53.4766 37.5547 53.5 37.2031 53.4531 36.8984C53.4688 37.2109 53.4531 37.5313 53.4531 37.8516Z" stroke="#505969" stroke-width="0.0075"/>
<path d="M37.4532 37.1485C37.086 37 36.6172 37.1172 36.2578 37.2578C35.9063 37.3985 35.6641 37.5782 35.3516 37.8047C35.0469 38.0313 34.9063 38.2266 34.6407 38.5391C34.3672 38.8516 34.2735 39.0625 34.086 39.4922C33.8985 39.9141 34.0625 40.2969 34.2344 39.7813C34.4063 39.2657 34.5391 39.25 34.7891 38.8907C35.0391 38.5313 35.2969 38.4375 35.586 38.1875C35.875 37.9453 36.1641 37.7969 36.4922 37.6407C36.8125 37.4766 37.2266 37.3907 37.4532 37.1485Z" stroke="#F0F0F0" stroke-width="0.0075"/>
<path d="M25.6484 37.8984C25.6484 37.6641 25.6484 37.4297 25.6484 37.2031C25.625 37.4219 25.625 37.6797 25.6484 37.8984Z" stroke="#67666B" stroke-width="0.0075"/>
<path d="M50.3516 37.8514C50.4531 37.9686 50.6406 38.0546 50.6016 38.2499C50.5391 38.2421 50.5703 38.1483 50.5 38.1483C50.7031 38.8358 51.1172 38.1952 50.8984 37.8046C50.6797 37.4061 50.5 37.0702 50 37.2499C50.0312 37.4843 50.2422 37.6405 50.3516 37.8514Z" stroke="#EDEDEE" stroke-width="0.0075"/>
<path d="M35.3984 40.75C35.3984 40.7656 35.4297 40.7969 35.4531 40.7969C36.2266 40.2969 36.6328 39.4063 37.4609 38.8594C38.2891 38.3203 39.2578 37.8047 40.25 37.7031C39.1328 37.2031 38.0859 37.8672 37.1641 38.4141C36.2422 38.9531 36.0547 40.0391 35.3984 40.75Z" stroke="#F1F1F1" stroke-width="0.0075"/>
<path d="M50.5 38.1484C50.5703 38.1484 50.5391 38.2422 50.6016 38.25C50.6406 38.0547 50.4531 37.9688 50.3516 37.8516C50.3984 37.9453 50.4609 38.0625 50.5 38.1484Z" stroke="#8A878D" stroke-width="0.0075"/>
<path d="M44.6484 40.1485C44.6406 39.7735 44.3984 39.3907 44.2109 39.086C44.0313 38.7813 43.7734 38.4844 43.4609 38.336C43.1563 38.1875 42.5313 37.875 42.3984 38.2969C42.9219 38.3828 43.3125 38.7188 43.7109 39.0391C44.1172 39.3594 44.2422 39.9453 44.6484 40.1485Z" stroke="#E9E9E9" stroke-width="0.0075"/>
<path d="M29.75 38.9531C29.7422 38.7188 29.7344 38.4766 29.75 38.25C29.711 38.4766 29.7188 38.7188 29.75 38.9531Z" stroke="#777577" stroke-width="0.0075"/>
<path d="M42.6016 40.5468C42.6328 39.414 41.0391 38.6562 40.0469 39C40.9375 39.3984 41.7656 40.0312 42.6016 40.5468Z" stroke="#F2F2F2" stroke-width="0.0075"/>
<path d="M44.8516 39.2031C44.9766 39.7734 45.3359 39.625 45.5859 40.2109C45.8438 40.8047 46.2109 40.3203 45.9141 39.8359C45.6172 39.3437 45.375 39.2344 44.8516 39.2031Z" stroke="#EAEAEA" stroke-width="0.0075"/>
<path d="M37.75 40.5468C37.9766 40.1796 38.3906 39.9062 38.8516 39.953C39.3047 39.9921 39.6094 40.1718 39.9922 40.453C40.3828 40.7343 40.4141 40.8983 40.8359 41.2655C41.2578 41.6249 41.5469 41.2968 41.1484 40.9062C40.75 40.5155 40.7188 40.3437 40.3125 40.039C39.9063 39.7343 39.6797 39.5858 39.2031 39.4999C38.7266 39.414 38.2969 39.5312 37.9063 39.7577C37.5078 39.9765 37.1797 40.3593 37.75 40.5468Z" stroke="#F5F5F5" stroke-width="0.0075"/>
<path d="M47.25 40.8984C47.2422 40.7031 47.2734 40.4062 47.25 40.2031C47.2578 40.4297 47.2187 40.6719 47.25 40.8984Z" stroke="#69676B" stroke-width="0.0075"/>
<path d="M31.4531 40.6016C30.8125 40.4532 30.664 41.6016 31.3515 41.6485C32.039 41.7032 32.0234 40.7344 31.4531 40.6016Z" stroke="#F3F3F3" stroke-width="0.0075"/>
<path d="M35.4531 40.7969C35.4297 40.7969 35.3984 40.7656 35.3984 40.75C35.2031 40.9063 34.9688 41.1094 34.8984 41.3516C35 41.1797 35.4219 41.0156 35.4531 40.7969Z" stroke="#BBB4A3" stroke-width="0.0075"/>
<path d="M38.5469 42.2501C38.9453 42.1563 38.9609 42.0469 39.3359 41.836C39.7109 41.6329 39.2969 41.2813 39.0156 41.5157C38.7344 41.7422 38.6953 41.961 38.5469 42.2501Z" stroke="#E8E8E9" stroke-width="0.0075"/>
<path d="M43.7969 41.5C43.375 41.4531 43.8984 42.5469 44.3984 42.4531C44.8984 42.3594 44.2344 41.5469 43.7969 41.5Z" stroke="#E8EAEC" stroke-width="0.0075"/>
<path d="M36.5469 41.703C36.1094 41.578 35.8359 42.2812 36.3984 42.453C36.9531 42.6249 36.9687 41.8124 36.5469 41.703Z" stroke="#F0EFEE" stroke-width="0.0075"/>
<path d="M46.7031 51.2031C42.5625 53.0156 37.4219 53 33.2969 51.1484C35.2266 52.4297 37.6328 53.0078 40 53C42.3672 52.9922 44.7891 52.5312 46.7031 51.2031Z" stroke="#EEEEEF" stroke-width="0.0075"/>
<path d="M0 80H80V0H0V80ZM52.8516 27.0469C52.4141 27.5547 51.9062 28.0703 51.3984 28.5C50.3438 29.4062 49.5 30.5 48.4531 31.3984C47.5391 32.3125 46.6094 33.2422 45.7031 34.1484C45.3516 34.5547 44.9844 34.9844 44.8516 35.5C44.5703 35.5078 44.3047 35.4609 44.0469 35.3516C44.6797 34.5391 45.3594 33.7891 46.1094 33.0625C46.8672 32.3359 47.5391 31.6172 48.2656 30.8594C48.9844 30.1016 49.7188 29.4219 50.4375 28.6406C51.1562 27.8516 51.8359 27.2422 52.5469 26.3984C53.2578 25.5469 53.8359 25.0312 54.5859 24.0859C55.3359 23.1406 57.2031 24.2891 56.8516 25.4531C56.4922 26.6094 55.4609 26.8672 54.6953 27.6484C53.9297 28.4219 53.1016 28.9141 52.2969 29.5938C51.4922 30.2812 50.7188 30.9297 49.9141 31.6094C49.1016 32.2969 48.4219 32.9297 47.6406 33.6875C46.8594 34.4453 46.1172 35.3516 46 36.4531C45.4141 35.8594 45.9219 34.9688 46.3359 34.4375C46.7578 33.9062 47.2266 33.4531 47.7109 32.9609C48.1953 32.4766 48.6641 32.0312 49.1641 31.5625C49.6562 31.0938 50.2031 30.6641 50.7109 30.2109C51.2188 29.7656 51.7578 29.3516 52.2812 28.9375C52.8047 28.5156 53.3359 28.0625 53.8594 27.6641C54.3906 27.2578 54.8984 26.7031 55.4141 26.3125C55.9297 25.9219 56.5938 24.9531 55.8438 24.5078C55.1016 24.0547 54.6875 25.1094 54.2344 25.5391C53.7891 25.9688 53.2891 26.5938 52.8516 27.0469ZM29.75 38.9531C29.7188 38.7188 29.7109 38.4766 29.75 38.25C29.8203 37.1719 30.6172 36.3203 31.3594 35.5625C32.1016 34.8047 33.1875 34.3672 34.1016 33.9531C35.0234 33.5391 36.5859 33.5234 37.0156 32.5156C37.4453 31.5078 37.8125 30.5469 38.5156 29.7109C39.2109 28.8828 39.8516 28.2188 40.6875 27.5312C41.5156 26.8516 42.3516 26.3125 43.3047 25.8047C44.2578 25.2969 45.3672 24.8047 46.4531 24.6016C46.1797 24.8516 45.7734 24.9219 45.4453 25.1016C45.125 25.2812 44.7656 25.4531 44.4453 25.6484C44.1328 25.8359 43.8203 26.0078 43.5156 26.2188C43.2109 26.4219 42.8984 26.6406 42.6094 26.8594C42.3203 27.0781 42.0547 27.2891 41.7891 27.5391C41.5234 27.7891 41.2344 28.0156 40.9844 28.2891C40.7422 28.5625 40.4766 28.7578 40.2344 29.0391C40 29.3125 39.7812 29.6172 39.5625 29.9141C39.3359 30.2031 39.1172 30.4609 38.9375 30.7891C38.7578 31.1172 38.5469 31.4453 38.4062 31.8047C38.2578 32.1562 38.0938 32.4844 37.9531 32.8516C37.8125 33.2188 37.5859 33.5312 37.1875 33.6406C36.7891 33.7422 36.4453 33.9062 36.0469 34C35.6562 34.0938 35.25 34.2578 34.8672 34.3672C34.4844 34.4766 34.1484 34.6484 33.7891 34.7891C33.4297 34.9297 33.0703 35.0938 32.7422 35.2969C32.4219 35.4922 32.1484 35.6641 31.8594 35.9141C31.5781 36.1641 31.3594 36.4297 31.1094 36.7109C30.8672 36.9922 30.7344 37.3125 30.5312 37.6328C30.3359 37.9531 30.2969 38.5156 30.2031 38.8516C30.1094 39.1875 30.6797 39.8516 30.2969 39.9453C29.9219 40.0469 29.7109 39.1875 29.75 38.9531ZM47.25 40.8984C47.2188 40.6719 47.2578 40.4297 47.25 40.2031C47.2266 39.1172 46.4453 38.1875 45.5625 37.5391C44.6797 36.8906 43.6406 36.5156 42.5703 36.1797C41.4922 35.8516 40.1328 35.4531 38.9531 35.4531C38.7344 35.4531 38.5156 35.4531 38.2969 35.4531C36.0625 35.4531 33.8672 36.9375 32.75 38.8516C31.8594 38.6172 31.5078 36.7578 32.6484 36.7031C32.5781 37.3359 32.2812 38.0469 32.6016 38.6484C33.6016 36.6094 35.7188 35.0391 38.0469 35.1016C38.2734 35.0781 38.5312 35.0781 38.75 35.1016C39.4688 35.1016 40.1641 35.1953 40.8516 35.3516C39.4609 33.6719 40 31.0547 41.1641 29.4688C42.3281 27.875 43.6016 26.5625 45.2969 25.6484C44.7891 26.2656 44.1562 26.7031 43.5859 27.3359C43.0156 27.9766 42.4844 28.4609 41.9844 29.1875C41.4844 29.9141 41.1016 30.625 40.8984 31.5547C40.6953 32.4766 40.8125 33.6172 41.1953 34.5078C41.5781 35.3906 42.4062 35.6953 43.25 35.8984C44.1016 36.0938 44.9141 36.5547 45.6406 36.9609C46.3594 37.3672 47 37.9688 47.3906 38.6641C47.7812 39.3594 48.2344 40.8594 47.25 41.1484C47.25 41.0703 47.25 40.9844 47.25 40.8984ZM53.4531 37.8516C53.4531 37.5312 53.4688 37.2109 53.4531 36.8984C53.3438 34.875 51.6406 33.2734 50.1484 32.0469C50.6797 31.125 51.5781 32.3438 52.1484 32.7031C52.3828 32.8984 52.6172 33.1172 52.7969 33.3516C53.875 34.7109 54.5859 36.4453 54.3516 38.2031C54.1172 39.9531 53.375 41.2812 52.1094 42.5156C50.8516 43.7422 49.75 44.3438 48.1484 45.0469C46.5469 45.7422 44.7031 46.1172 42.8984 46.3516C41.1016 46.5859 38.5938 46.5938 36.8203 46.3359C35.0391 46.0781 33.2266 45.6484 31.6953 44.9062C30.1641 44.1562 28.9766 43.5 27.8125 42.2891C26.6484 41.0703 25.6484 39.6016 25.6484 37.8984C25.625 37.6797 25.625 37.4219 25.6484 37.2031C25.6875 35.3984 26.8984 33.8359 28.1641 32.5625C29.4297 31.2891 30.9297 30.5547 32.6016 29.8516C34.2812 29.1484 36.5547 28.6172 38.4531 28.5469C38.4922 28.8438 38.3438 29.0781 38.2969 29.3516C36.2422 29.3594 33.9766 30.0234 32.1641 30.8125C30.3594 31.6094 29.125 32.6562 27.8906 34.1875C26.6484 35.7188 26.125 38.1719 27.2656 39.8828C28.3984 41.6016 29.6797 42.4141 31.5312 43.2656C33.3828 44.1172 35.5938 44.4766 37.7031 44.75C39.8047 45.0234 42.6797 44.8203 44.7031 44.4062C46.7266 43.9844 48.6562 43.5 50.3359 42.3828C52.0156 41.2734 53.25 39.8281 53.4531 37.8516ZM48.4531 30.1484C48.2578 30.8984 47.6641 30.6094 47.1406 30.3594C46.6094 30.1172 46 29.9922 45.4375 29.8125C44.875 29.625 44.2031 29.5781 43.6484 29.3516C43.7109 28.4609 44.4922 28.8828 45.0625 28.9922C45.6328 29.1016 46.25 29.2969 46.8047 29.4922C47.3594 29.6953 47.9062 29.9141 48.4531 30.1484ZM49.0469 40.2969C49.1875 38.8047 48.3906 37.3438 47.1016 36.6016C47.4141 36.5 47.7422 36.75 48.0156 36.9375C48.2891 37.125 48.5312 37.3125 48.7656 37.5859C48.9922 37.8672 49.1172 38.1094 49.2969 38.4531C49.4766 38.7969 49.5312 39.1172 49.6172 39.5312C49.7031 39.9453 49.6406 40.4297 49.0469 40.2969ZM37.4531 37.1484C37.2266 37.3906 36.8125 37.4766 36.4922 37.6406C36.1641 37.7969 35.875 37.9453 35.5859 38.1875C35.2969 38.4375 35.0391 38.5312 34.7891 38.8906C34.5391 39.25 34.4062 39.2656 34.2344 39.7812C34.0625 40.2969 33.8984 39.9141 34.0859 39.4922C34.2734 39.0625 34.3672 38.8516 34.6406 38.5391C34.9062 38.2266 35.0469 38.0312 35.3516 37.8047C35.6641 37.5781 35.9062 37.3984 36.2578 37.2578C36.6172 37.1172 37.0859 37 37.4531 37.1484ZM50.5 38.1484C50.4609 38.0625 50.3984 37.9453 50.3516 37.8516C50.2422 37.6406 50.0312 37.4844 50 37.25C50.5 37.0703 50.6797 37.4062 50.8984 37.8047C51.1172 38.1953 50.7031 38.8359 50.5 38.1484ZM35.4531 40.7969C35.4219 41.0156 35 41.1797 34.8984 41.3516C34.9688 41.1094 35.2031 40.9062 35.3984 40.75C36.0547 40.0391 36.2422 38.9531 37.1641 38.4141C38.0859 37.8672 39.1328 37.2031 40.25 37.7031C39.2578 37.8047 38.2891 38.3203 37.4609 38.8594C36.6328 39.4062 36.2266 40.2969 35.4531 40.7969ZM44.6484 40.1484C44.2422 39.9453 44.1172 39.3594 43.7109 39.0391C43.3125 38.7188 42.9219 38.3828 42.3984 38.2969C42.5312 37.875 43.1562 38.1875 43.4609 38.3359C43.7734 38.4844 44.0312 38.7812 44.2109 39.0859C44.3984 39.3906 44.6406 39.7734 44.6484 40.1484ZM42.6016 40.5469C41.7656 40.0312 40.9375 39.3984 40.0469 39C41.0391 38.6562 42.6328 39.4141 42.6016 40.5469ZM44.8516 39.2031C45.375 39.2344 45.6172 39.3438 45.9141 39.8359C46.2109 40.3203 45.8438 40.8047 45.5859 40.2109C45.3359 39.625 44.9766 39.7734 44.8516 39.2031ZM37.75 40.5469C37.1797 40.3594 37.5078 39.9766 37.9062 39.7578C38.2969 39.5312 38.7266 39.4141 39.2031 39.5C39.6797 39.5859 39.9062 39.7344 40.3125 40.0391C40.7188 40.3438 40.75 40.5156 41.1484 40.9062C41.5469 41.2969 41.2578 41.625 40.8359 41.2656C40.4141 40.8984 40.3828 40.7344 39.9922 40.4531C39.6094 40.1719 39.3047 39.9922 38.8516 39.9531C38.3906 39.9062 37.9766 40.1797 37.75 40.5469ZM31.4531 40.6016C32.0234 40.7344 32.0391 41.7031 31.3516 41.6484C30.6641 41.6016 30.8125 40.4531 31.4531 40.6016ZM38.5469 42.25C38.6953 41.9609 38.7344 41.7422 39.0156 41.5156C39.2969 41.2812 39.7109 41.6328 39.3359 41.8359C38.9609 42.0469 38.9453 42.1562 38.5469 42.25ZM43.7969 41.5C44.2344 41.5469 44.8984 42.3594 44.3984 42.4531C43.8984 42.5469 43.375 41.4531 43.7969 41.5ZM36.5469 41.7031C36.9688 41.8125 36.9531 42.625 36.3984 42.4531C35.8359 42.2812 36.1094 41.5781 36.5469 41.7031ZM46.7031 51.2031C44.7891 52.5312 42.3672 52.9922 40 53C37.6328 53.0078 35.2266 52.4297 33.2969 51.1484C37.4219 53 42.5625 53.0156 46.7031 51.2031Z" fill="#0E0D10"/>
<path d="M45.7031 34.1483C46.1016 33.6796 46.6016 33.2655 47 32.7968C47.2734 32.4843 47.5859 32.1718 47.8984 31.8983C48.0859 31.7421 48.2656 31.5546 48.4531 31.3983C49.5 30.4999 50.3438 29.4061 51.3984 28.4999C51.8828 28.0233 52.375 27.5233 52.8516 27.0468C53.2891 26.5936 53.7891 25.9686 54.2344 25.539C54.6875 25.1093 55.1016 24.0546 55.8438 24.5077C56.5938 24.953 55.9297 25.9218 55.4141 26.3124C54.8984 26.703 54.3906 27.2577 53.8594 27.664C53.3359 28.0624 52.8047 28.5155 52.2813 28.9374C51.7578 29.3515 51.2188 29.7655 50.7109 30.2108C50.2031 30.664 49.6563 31.0936 49.1641 31.5624C48.6641 32.0311 48.1953 32.4765 47.7109 32.9608C47.2266 33.453 46.7578 33.9061 46.3359 34.4374C45.9219 34.9686 45.4141 35.8593 46 36.453C46.1172 35.3515 46.8594 34.4452 47.6406 33.6874C48.4219 32.9296 49.1016 32.2968 49.9141 31.6093C50.7188 30.9296 51.4922 30.2811 52.2969 29.5936C53.1016 28.914 53.9297 28.4218 54.6953 27.6483C55.4609 26.8671 56.4922 26.6093 56.8516 25.453C57.2031 24.289 55.3359 23.1405 54.5859 24.0858C53.8359 25.0311 53.2578 25.5468 52.5469 26.3983C51.8359 27.2421 51.1563 27.8515 50.4375 28.6405C49.7188 29.4218 48.9844 30.1015 48.2656 30.8593C47.5391 31.6171 46.8672 32.3358 46.1094 33.0624C45.3594 33.789 44.6797 34.539 44.0469 35.3515C44.3047 35.4608 44.5703 35.5077 44.8516 35.4999C44.9844 34.9843 45.3516 34.5546 45.7031 34.1483Z" fill="#F5F5F5"/>
<path d="M29.75 38.25C29.7344 38.4766 29.7422 38.7188 29.75 38.9531C29.7109 39.1875 29.9219 40.0469 30.2969 39.9453C30.6797 39.8516 30.1094 39.1875 30.2031 38.8516C30.2969 38.5156 30.3359 37.9531 30.5312 37.6328C30.7344 37.3125 30.8672 36.9922 31.1094 36.7109C31.3594 36.4297 31.5781 36.1641 31.8594 35.9141C32.1484 35.6641 32.4219 35.4922 32.7422 35.2969C33.0703 35.0937 33.4297 34.9297 33.789 34.7891C34.1484 34.6484 34.4844 34.4766 34.8672 34.3672C35.25 34.2578 35.6562 34.0938 36.0469 34C36.4453 33.9062 36.789 33.7422 37.1875 33.6406C37.5859 33.5313 37.8125 33.2188 37.9531 32.8516C38.0937 32.4844 38.2578 32.1562 38.4062 31.8047C38.5469 31.4453 38.7578 31.1172 38.9375 30.7891C39.1172 30.4609 39.3359 30.2031 39.5625 29.9141C39.7812 29.6172 40 29.3125 40.2344 29.0391C40.4765 28.7578 40.7422 28.5625 40.9844 28.2891C41.2344 28.0156 41.5234 27.7891 41.7891 27.5391C42.0547 27.2891 42.3203 27.0781 42.6094 26.8594C42.8984 26.6406 43.2109 26.4219 43.5156 26.2188C43.8203 26.0078 44.1328 25.8359 44.4453 25.6484C44.7656 25.4531 45.125 25.2813 45.4453 25.1016C45.7734 24.9219 46.1797 24.8516 46.4531 24.6016C45.3672 24.8047 44.2578 25.2969 43.3047 25.8047C42.3515 26.3125 41.5156 26.8516 40.6875 27.5312C39.8515 28.2188 39.2109 28.8828 38.5156 29.7109C37.8125 30.5469 37.4453 31.5078 37.0156 32.5156C36.5859 33.5234 35.0234 33.5391 34.1015 33.9531C33.1875 34.3672 32.1016 34.8047 31.3594 35.5625C30.6172 36.3203 29.8203 37.1719 29.75 38.25Z" fill="#F7F7F7"/>
<path d="M38.75 35.1016C38.5156 35.1016 38.2812 35.1016 38.0469 35.1016C35.7187 35.0391 33.6015 36.6094 32.6015 38.6484C32.2812 38.0469 32.5781 37.3359 32.6484 36.7031C31.5078 36.7578 31.8594 38.6172 32.75 38.8516C33.8672 36.9375 36.0625 35.4531 38.2969 35.4531C38.5078 35.4297 38.75 35.4297 38.9531 35.4531C40.1328 35.4531 41.4922 35.8516 42.5703 36.1797C43.6406 36.5156 44.6797 36.8906 45.5625 37.5391C46.4453 38.1875 47.2265 39.1172 47.25 40.2031C47.2734 40.4062 47.2422 40.7031 47.25 40.8984C47.25 40.9844 47.25 41.0703 47.25 41.1484C48.2344 40.8594 47.7812 39.3594 47.3906 38.6641C47 37.9688 46.3594 37.3672 45.6406 36.9609C44.914 36.5547 44.1015 36.0937 43.25 35.8984C42.4062 35.6953 41.5781 35.3906 41.1953 34.5078C40.8125 33.6172 40.6953 32.4766 40.8984 31.5547C41.1015 30.625 41.4844 29.9141 41.9844 29.1875C42.4844 28.4609 43.0156 27.9766 43.5859 27.3359C44.1562 26.7031 44.789 26.2656 45.2969 25.6484C43.6015 26.5625 42.3281 27.875 41.164 29.4687C40 31.0547 39.4609 33.6719 40.8515 35.3516C40.164 35.1953 39.4687 35.1016 38.75 35.1016Z" fill="#F3F3F3"/>
<path d="M51.3984 28.5C51.9062 28.0703 52.4141 27.5547 52.8516 27.0469C52.375 27.5234 51.8828 28.0234 51.3984 28.5Z" fill="#3B393E"/>
<path d="M25.6484 37.2031C25.6484 37.4297 25.6484 37.6641 25.6484 37.8984C25.6484 39.6016 26.6484 41.0703 27.8125 42.2891C28.9766 43.5 30.1641 44.1562 31.6953 44.9062C33.2266 45.6484 35.0391 46.0781 36.8203 46.3359C38.5938 46.5937 41.1016 46.5859 42.8984 46.3516C44.7031 46.1172 46.5469 45.7422 48.1484 45.0469C49.75 44.3437 50.8516 43.7422 52.1094 42.5156C53.375 41.2812 54.1172 39.9531 54.3516 38.2031C54.5859 36.4453 53.875 34.7109 52.7969 33.3516C52.6016 33.1328 52.3594 32.9062 52.1484 32.7031C51.5781 32.3437 50.6797 31.125 50.1484 32.0469C51.6406 33.2734 53.3438 34.875 53.4531 36.8984C53.5 37.2031 53.4766 37.5547 53.4531 37.8516C53.25 39.8281 52.0156 41.2734 50.3359 42.3828C48.6562 43.5 46.7266 43.9844 44.7031 44.4062C42.6797 44.8203 39.8047 45.0234 37.7031 44.75C35.5938 44.4766 33.3828 44.1172 31.5312 43.2656C29.6797 42.4141 28.3984 41.6016 27.2656 39.8828C26.125 38.1719 26.6484 35.7187 27.8906 34.1875C29.125 32.6562 30.3594 31.6094 32.1641 30.8125C33.9766 30.0234 36.2422 29.3594 38.2969 29.3516C38.3437 29.0781 38.4922 28.8437 38.4531 28.5469C36.5547 28.6172 34.2812 29.1484 32.6016 29.8516C30.9297 30.5547 29.4297 31.2891 28.1641 32.5625C26.8984 33.8359 25.6875 35.3984 25.6484 37.2031Z" fill="#FAFAFA"/>
<path d="M48.4531 30.1486C47.9063 29.9142 47.3594 29.6954 46.8047 29.4923C46.25 29.297 45.6328 29.1017 45.0625 28.9923C44.4922 28.8829 43.7109 28.4611 43.6484 29.3517C44.2031 29.5782 44.875 29.6251 45.4375 29.8126C46 29.9923 46.6094 30.1173 47.1406 30.3595C47.6641 30.6095 48.2578 30.8986 48.4531 30.1486Z" fill="#F6F6F7"/>
<path d="M47.8984 31.8984C47.6016 32.1953 47.2969 32.5078 47 32.7969C46.6016 33.2656 46.1016 33.6797 45.7031 34.1484C46.6094 33.2422 47.5391 32.3125 48.4531 31.3984C48.2656 31.5547 48.0859 31.7422 47.8984 31.8984Z" fill="#4D3430"/>
<path d="M47 32.7969C47.2969 32.5078 47.6016 32.1953 47.8984 31.8984C47.5859 32.1719 47.2734 32.4844 47 32.7969Z" fill="#A2837A"/>
<path d="M52.7969 33.3516C52.6172 33.1172 52.3828 32.8984 52.1484 32.7031C52.3594 32.9063 52.6016 33.1328 52.7969 33.3516Z" fill="#827D83"/>
<path d="M38.0469 35.1016C38.2812 35.1016 38.5156 35.1016 38.75 35.1016C38.5312 35.0781 38.2734 35.0781 38.0469 35.1016Z" fill="#6D6B69"/>
<path d="M38.2969 35.4531C38.5156 35.4531 38.7344 35.4531 38.9531 35.4531C38.75 35.4297 38.5078 35.4297 38.2969 35.4531Z" fill="#949395"/>
<path d="M49.0469 40.2969C49.6406 40.4297 49.7031 39.9453 49.6172 39.5313C49.5312 39.1172 49.4766 38.7969 49.2969 38.4531C49.1172 38.1094 48.9922 37.8672 48.7656 37.5859C48.5313 37.3125 48.2891 37.125 48.0156 36.9375C47.7422 36.75 47.4141 36.5 47.1016 36.6016C48.3906 37.3438 49.1875 38.8047 49.0469 40.2969Z" fill="#F0F0F0"/>
<path d="M53.4531 37.8516C53.4766 37.5547 53.5 37.2031 53.4531 36.8984C53.4688 37.2109 53.4531 37.5313 53.4531 37.8516Z" fill="#505969"/>
<path d="M37.4532 37.1485C37.086 37 36.6172 37.1172 36.2578 37.2578C35.9063 37.3985 35.6641 37.5782 35.3516 37.8047C35.0469 38.0313 34.9063 38.2266 34.6407 38.5391C34.3672 38.8516 34.2735 39.0625 34.086 39.4922C33.8985 39.9141 34.0625 40.2969 34.2344 39.7813C34.4063 39.2657 34.5391 39.25 34.7891 38.8907C35.0391 38.5313 35.2969 38.4375 35.586 38.1875C35.875 37.9453 36.1641 37.7969 36.4922 37.6407C36.8125 37.4766 37.2266 37.3907 37.4532 37.1485Z" fill="#F0F0F0"/>
<path d="M25.6484 37.8984C25.6484 37.6641 25.6484 37.4297 25.6484 37.2031C25.625 37.4219 25.625 37.6797 25.6484 37.8984Z" fill="#67666B"/>
<path d="M50.3516 37.8514C50.4531 37.9686 50.6406 38.0546 50.6016 38.2499C50.5391 38.2421 50.5703 38.1483 50.5 38.1483C50.7031 38.8358 51.1172 38.1952 50.8984 37.8046C50.6797 37.4061 50.5 37.0702 50 37.2499C50.0312 37.4843 50.2422 37.6405 50.3516 37.8514Z" fill="#EDEDEE"/>
<path d="M35.3984 40.75C35.3984 40.7656 35.4297 40.7969 35.4531 40.7969C36.2266 40.2969 36.6328 39.4063 37.4609 38.8594C38.2891 38.3203 39.2578 37.8047 40.25 37.7031C39.1328 37.2031 38.0859 37.8672 37.1641 38.4141C36.2422 38.9531 36.0547 40.0391 35.3984 40.75Z" fill="#F1F1F1"/>
<path d="M50.5 38.1484C50.5703 38.1484 50.5391 38.2422 50.6016 38.25C50.6406 38.0547 50.4531 37.9688 50.3516 37.8516C50.3984 37.9453 50.4609 38.0625 50.5 38.1484Z" fill="#8A878D"/>
<path d="M44.6484 40.1485C44.6406 39.7735 44.3984 39.3907 44.2109 39.086C44.0312 38.7813 43.7734 38.4844 43.4609 38.336C43.1562 38.1875 42.5312 37.875 42.3984 38.2969C42.9219 38.3828 43.3125 38.7188 43.7109 39.0391C44.1172 39.3594 44.2422 39.9453 44.6484 40.1485Z" fill="#E9E9E9"/>
<path d="M29.75 38.9531C29.7422 38.7188 29.7344 38.4766 29.75 38.25C29.711 38.4766 29.7188 38.7188 29.75 38.9531Z" fill="#777577"/>
<path d="M42.6016 40.5468C42.6328 39.414 41.0391 38.6562 40.0469 39C40.9375 39.3984 41.7656 40.0312 42.6016 40.5468Z" fill="#F2F2F2"/>
<path d="M44.8516 39.2031C44.9766 39.7734 45.3359 39.625 45.5859 40.2109C45.8437 40.8047 46.2109 40.3203 45.9141 39.8359C45.6172 39.3437 45.375 39.2344 44.8516 39.2031Z" fill="#EAEAEA"/>
<path d="M37.75 40.5468C37.9766 40.1796 38.3906 39.9062 38.8516 39.953C39.3047 39.9921 39.6094 40.1718 39.9922 40.453C40.3828 40.7343 40.4141 40.8983 40.8359 41.2655C41.2578 41.6249 41.5469 41.2968 41.1484 40.9062C40.75 40.5155 40.7188 40.3437 40.3125 40.039C39.9063 39.7343 39.6797 39.5858 39.2031 39.4999C38.7266 39.414 38.2969 39.5312 37.9063 39.7577C37.5078 39.9765 37.1797 40.3593 37.75 40.5468Z" fill="#F5F5F5"/>
<path d="M47.25 40.8984C47.2422 40.7031 47.2734 40.4063 47.25 40.2031C47.2578 40.4297 47.2187 40.6719 47.25 40.8984Z" fill="#69676B"/>
<path d="M31.4531 40.6016C30.8125 40.4532 30.664 41.6016 31.3515 41.6485C32.039 41.7032 32.0234 40.7344 31.4531 40.6016Z" fill="#F3F3F3"/>
<path d="M35.4531 40.7969C35.4297 40.7969 35.3984 40.7656 35.3984 40.75C35.2031 40.9062 34.9687 41.1094 34.8984 41.3516C35 41.1797 35.4219 41.0156 35.4531 40.7969Z" fill="#BBB4A3"/>
<path d="M38.5469 42.2501C38.9453 42.1563 38.9609 42.0469 39.3359 41.836C39.7109 41.6329 39.2969 41.2813 39.0156 41.5157C38.7344 41.7422 38.6953 41.961 38.5469 42.2501Z" fill="#E8E8E9"/>
<path d="M43.7969 41.5C43.375 41.4531 43.8984 42.5469 44.3984 42.4531C44.8984 42.3594 44.2344 41.5469 43.7969 41.5Z" fill="#E8EAEC"/>
<path d="M36.5469 41.703C36.1094 41.578 35.8359 42.2812 36.3984 42.453C36.9531 42.6249 36.9687 41.8124 36.5469 41.703Z" fill="#F0EFEE"/>
<path d="M46.7031 51.2031C42.5625 53.0156 37.4219 53 33.2969 51.1484C35.2266 52.4297 37.6328 53.0078 40 53C42.3672 52.9922 44.7891 52.5313 46.7031 51.2031Z" fill="#EEEEEF"/>
</svg>
